/* XPM */
static char *_775f28ae5fe4e9997f316d41e2e471bpP120gQu1KfTonPd[] = {
/* columns rows colors chars-per-pixel */
"32 32 94 2 ",
"   c #030303",
".  c #070708",
"X  c #070809",
"o  c #090A0B",
"O  c #110707",
"+  c #120A07",
"@  c #170708",
"#  c #140C0C",
"$  c #1E0D0D",
"%  c #1D1007",
"&  c #16100C",
"*  c #1D120B",
"=  c #0E1011",
"-  c #111313",
";  c #191314",
":  c #151718",
">  c #17191A",
",  c #1A1C1D",
"<  c #23130C",
"1  c #2D160D",
"2  c #29190E",
"3  c #301C0F",
"4  c #211011",
"5  c #241B14",
"6  c #2B1C11",
"7  c #352215",
"8  c #31241A",
"9  c #3D291B",
"0  c #1D1F20",
"q  c #1E2122",
"w  c #232627",
"e  c #262A2C",
"r  c #292D2F",
"t  c #2A2F31",
"y  c #2D3235",
"u  c #2F3538",
"i  c #303537",
"p  c #303639",
"a  c #343B3E",
"s  c #6B2223",
"d  c #762525",
"f  c #782626",
"g  c #79482F",
"h  c #353D40",
"j  c #3B4347",
"k  c #3C4448",
"l  c #802727",
"z  c #802828",
"x  c #B72C2C",
"c  c #BF2B2B",
"v  c #C52B2B",
"b  c #C82F2F",
"n  c #C73030",
"m  c #CB3434",
"M  c #CB3B3B",
"N  c #85502C",
"B  c #97582D",
"V  c #945730",
"C  c #9E5F35",
"Z  c #A45D2D",
"A  c #AE622E",
"S  c #A36135",
"D  c #B36632",
"F  c #B66A39",
"G  c #C06E37",
"H  c #C47037",
"J  c #CD7438",
"K  c #D47738",
"L  c #D5793B",
"P  c #DC7C3B",
"I  c #E07E3B",
"U  c #CE4545",
"Y  c #CF4949",
"T  c #CE4C4C",
"R  c #D04949",
"E  c #D45050",
"W  c #C27441",
"Q  c #CE7A41",
"!  c #D37D42",
"~  c #E56767",
"^  c #E97171",
"/  c #EA7575",
"(  c #E4823F",
")  c #E38341",
"_  c #E78340",
"`  c #ED8741",
"'  c #F28942",
"]  c #F58A42",
"[  c #FB8E43",
"{  c #FD8E43",
"}  c #DA9A9A",
"|  c #E48787",
" . c #DEABAB",
".. c #F3D2D2",
/* pixels */
"    . . . . .   . . .             . . . . .       . . . . . .   ",
"  o r y y y e X > , , - - - - - - , , , , , - : X e y y y y e . ",
"X u j j j j a o , q q q , , 0 0 q q q q q q > > X y j j j j a X ",
"X a k k k k a o , q q q q q q q q q q q q q , - X p h j k k a X ",
"X a k k k k h = > q , > q q q q q q q q q q q > = i j k k k a X ",
"X a k k k k j r o , > , q q q , , q q q q q , o u j k k k k a X ",
"X a k k j k j y X , q q q , > # # > , 0 > , , o a k k k k j a X ",
"X a k j a j k u = > , , > # $ s s $ # > > - = = h k k k j h a X ",
"X a k j a a a a w # + + $ s l x x l s $ + O # t a a h j k j y X ",
"X y j a p 5 X X $ s f f z x v v v v x z f f s 4 X X 5 p k j y . ",
". y j p 9 A % @ d x v c v Y M v v M Y v c v x d @ % A 9 p j y . ",
". y a 5 D P 1 s x b R M M M ~ Y Y ~ M M M R b x s 1 P D 5 a y . ",
"X y u 7 J P 1 f c v M ^ | Y U  . .U Y | ^ M v c f 1 K J 7 u y X ",
". w 8 S P P 1 f c v v m Y } M M M M } Y m v v c f < Z L S 8 r X ",
"  5 S P _ P 1 f c n m M b M n M M n M b M m n c f 1 K ) F N &   ",
"+ g L ' { P 1 f c E / | Y v U ....U v Y | / E c f 1 K ' F V +   ",
"+ g W ! [ I 1 f c n m T } M M ....M M } T m n c f < Z ' ] J %   ",
"  < C Q [ P 1 f c v v v M M n M M n U U b v v c f 1 G _ ` B #   ",
"  o 6 D ( P 1 f c v v m Y } M M M M } Y m v v c f 1 K H S 6 : . ",
". > - 3 J P 1 f c v M ^ | Y U  . .U Y | ^ m v c f 1 P D 2 - , . ",
". , , * D P 1 s x b R M M M ~ Y Y ~ M M M R b x s 1 P D * > , . ",
". , q , 7 A % @ d x v c v Y M v v M Y v c v x d @ % A 7 > > , . ",
". , q q , * .   $ s f f l x v v v v x l f f s $ . . * , q q , . ",
". , q q q , , - : # # # 4 s l x x l s 4 # # # > , , , q q q , . ",
". , q q q q q - o u a a p ; 4 s s 4 ; p a a u o , q q q q q ,   ",
". , q q q q q - X h k k j h p ; ; p h j k k a o , q q q q q , . ",
". , q q q q , = = h k k k k j h h j k k k k h - > q q q q q , . ",
"  - q q q q - o u j k k k k k k k k k k k k j p o , q q q q , . ",
"  - 0 q q 0 - X h k k k k k k k k k k k k k k a o , q q q q , . ",
"  - , q q q - X h k k k k k k k k k k k k k k h o , q 0 0 q , . ",
"  o - - , , = X u a a a a a a a a a a a a a a u X = - - - - =   ",
"        . .     X X X X X X X X X X X X X X X X                 "
};
