/* XPM */
static char *result[] = {
/* columns rows colors chars-per-pixel */
"32 32 21 1 ",
"  c #FBFF6B",
". c black",
"X c #FEE862",
"o c #FAFC6A",
"O c #FDFFBA",
"+ c #FCFB69",
"@ c #1E1F0D",
"# c #FDFEAE",
"$ c #FDED63",
"% c #C9CD56",
"& c #FEED6F",
"* c #FBFF79",
"= c #020301",
"- c #FDF06C",
"; c #E3E760",
": c #383918",
"> c #DCE15E",
", c #FDFBA5",
"< c #343516",
"1 c #DEE35F",
"2 c #FBF868",
/* pixels */
"............=@@@@@@=............",
".........=@@:%>>>>%:@@=.........",
".......=@:%1;o    o;1%:@=.......",
".......<%;o o-&&&&-o o;%<.......",
"....=@:% +&&&,####,&&&+ %:@=....",
"....@%;o+-,##OOOOOO#,,-+o;%@....",
"....:; +-,OOOOO##OO#**+-+ ;:....",
"...<%o+-,OOOOO#&&##*  *,-+o%<...",
".=<% +-,OOOOO#,XX,*   *#,-+ %<=.",
".@% +-,OOOOO,&&XXX$+ *##*+-+ %@.",
".@1 &,OOOOO,&XXXXXX$+,#*  +$ 1@.",
"=:;+&#OOOO#&XXXXXXXX$o*   o$+;:=",
"@%o&,OOOOO#&XX2XX2$XXo     +$o%@",
"@> &#OOOOO#&XX2XXo+$$o     o$ >@",
"@> &#OOOOO,&XX2XX2ooo      o$ >@",
"@> &#OOOO#*+$XXXXX$+       o$ >@",
"@> &#OOO#*  +$XXXXX$+      o$ >@",
"@> &#OO#*  ooo2XX2XX$o     o$ >@",
"@> &#O#* *o$$+oXX2XXXo     o$ >@",
"@%o&,#* *#,&X$2XX2XXXo     +$o%@",
"=:;+&***##*$XXXXXXXX$o    o$+;:=",
".@1 -,###* +$XXXXXX$+     +$ 1@.",
".@% +-,**   +$XXXX$+     +-+ %@.",
".=<% +-+     o2XX2o     +-+ %<=.",
"...<%o+-+     o$$o     +-+o%<...",
"....:; +-+     oo     +-+ ;:....",
"....@%;o+-+oo      oo+-+o;%@....",
".....@:% +$$$+oooo+$$$+ %:@=....",
".......<%;o o$$$$$$o o;%<.......",
".......=@:%1;o    o;1%:@=.......",
".........=@@:%>>>>%:@@=.........",
"............=@@@@@@=............"
};
