/* XPM */
static char *_35c17b7b1184b0185d5cc6178986b13YY3UkihvPqMARg6a[] = {
/* columns rows colors chars-per-pixel */
"32 32 111 2 ",
"   c #010101",
".  c #090203",
"X  c #0C0609",
"o  c #0C0A0B",
"O  c #170707",
"+  c #190607",
"@  c #150608",
"#  c #1B070A",
"$  c #17080B",
"%  c #1D0A0B",
"&  c #1E0B10",
"*  c #110F1B",
"=  c #181717",
"-  c #13141F",
";  c #1A1718",
":  c #1B1A1B",
">  c #200507",
",  c #220708",
"<  c #2E060A",
"1  c #220A0A",
"2  c #290C0D",
"3  c #330D0E",
"4  c #350D11",
"5  c #241717",
"6  c #281717",
"7  c #241D1D",
"8  c #2A1D1E",
"9  c #3D1111",
"0  c #321C1E",
"q  c #151522",
"w  c #181726",
"e  c #191926",
"r  c #331D21",
"t  c #252121",
"y  c #2B2121",
"u  c #322324",
"i  c #3E2525",
"p  c #352728",
"a  c #342F2F",
"s  c #343334",
"d  c #393939",
"f  c #451313",
"g  c #4A1414",
"h  c #4F1818",
"j  c #521616",
"k  c #531817",
"l  c #541818",
"z  c #5D1B1B",
"x  c #402526",
"c  c #433536",
"v  c #443A3A",
"b  c #86111C",
"n  c #89131E",
"m  c #9D1420",
"M  c #9D1824",
"N  c #A01926",
"B  c #B11C29",
"V  c #8C2727",
"C  c #822828",
"Z  c #8C2929",
"A  c #962C2C",
"S  c #9A2D2D",
"D  c #9E2B36",
"F  c #A12E2E",
"G  c #A32B36",
"H  c #A52D38",
"J  c #B62E3B",
"K  c #A43030",
"L  c #AD3232",
"P  c #AB333F",
"I  c #B7323E",
"U  c #B8323E",
"Y  c #A64049",
"T  c #BB444F",
"R  c #BF4B56",
"E  c #C04A55",
"W  c #DE747E",
"Q  c #BD8B8B",
"!  c #A29495",
"~  c #AD9A9B",
"^  c #BF9EA1",
"/  c #A9A9A9",
"(  c #B0AFAF",
")  c #B1B2B2",
"_  c #C1999D",
"`  c #C4A0A4",
"'  c #D9A7A7",
"]  c #DAADAD",
"[  c #C1B1B3",
"{  c #C6B6B8",
"}  c #DAB2B4",
"|  c #C4C3C3",
" . c #C7C6C6",
".. c #C8C3C3",
"X. c #C9C7C7",
"o. c gray79",
"O. c #CDCDCD",
"+. c #D9C6C8",
"@. c #DBC8CA",
"#. c #DCC9CA",
"$. c #DDCACC",
"%. c #DFDCDC",
"&. c #E1DBDB",
"*. c #E2DDDD",
"=. c #E5DDDD",
"-. c #E2E2E2",
";. c #E6E6E6",
":. c #F8E5E7",
">. c #FDEEEE",
",. c #FBFBFB",
"<. c white",
/* pixels */
"  . . . . . . . . . . . . . . . . . . . . . . . . . . . . . .   ",
". 3 9 f g g g g g g g g g g g g g g g g g g g g g g g g f 9 3 . ",
". 9 j A F F F F F F F F F F F F F F F F F F F F F F F F A j 9 . ",
". 9 z F L L L L L L L L L L L L L L L L L L L L L L L L F z 9 . ",
". j A F A A S F L L L L L L L L L L L L L L L L F S A A F A j . ",
"O Z A h 1 1 f l A F L L L L L L L L L L L L F A l f 1 1 h A Z O ",
"+ Z z % f f . . 9 j V A L L L L L L L L L Z j 9 . . f f % z Z + ",
"+ A A z A C y : t y y 2 V L L L L L L A V i t t : y C A z A A + ",
"O A L K A x  .-.-.-.o.s 2 A L L L L A 2 c o.-.-.-. .x A K L A O ",
"O A L L A u -.<.;.;.,.o.7 j F L L F j 7 o.,.;.;.<.-.u A L L A O ",
"O A L L V u -.;.d d ;.-.t f F L L F f t -.;.d d ;.-.u V L L A O ",
"O A L F j y -.-.; ; -.-.t f F L L F f t -.-.; ; -.-.y j F L A O ",
"O A L F f 7 &.;.d d ;.-.t f F L L F f t -.;.d d ;.&.7 f F L A O ",
"O A L F f 5 ] >.=.=.,.o.8 j F L L F j 8 o.,.;.=.>.] 5 f F L A O ",
"O A L F j 6 Q ' ' } ..c h A L L L L A h c o.*.] ' Q 6 j F L A O ",
"O A L L A h 6 5 5 5 8 h A L L L L L L A h 8 t 5 5 6 h A L L A O ",
"O A L L L A j f f f j A F F F F F F F F A j f f f j A L L L A O ",
"O A L L L L F F S Z Z Z j f g f f g f j Z V V S F F L L L L A O ",
"O A L L L L F A V x 2 # 7 7 o 7 7 o 7 7 % y x V A F L L L L A O ",
"O A L L L F h % c ` Y u | [ a [ | s | [ s  .O.v % h F L L L A O ",
"O A L L L Z O ; ^ W ^ d $.R 3 E } d #.R u X.:.[ = O Z L L L A O ",
"O A L L F h X + T ` s t } U < M G p @.E % y P I + X h F L L A O ",
"O A L L Z % q # M r - $ G B + @ O 7 %.{ ; * < m # q % Z L L A O ",
"O A L F j X w + n 8 o ; 3 N 0     s ) d ; o 8 n + w X j F L A O ",
"O A L F g X w X c ~ s ! 0 J _ ; ; ~ c 7 / d ( v X w X g F L A O ",
"O A L F g X w e ^ T 4 D 3 M H O $ G n u | v +.[ : w X g F L A O ",
"+ A L F g X w & J N < b > + + . . + + 7 / u H U % w X g F L A + ",
"O Z L F g X q + n < . , f g g g g g g f 7 X < n + q X g F L Z O ",
". j F F k @ X . , f g j A F F F F F F A j g f , . X @ k F F j . ",
". f A F A l g g l A F F L L L L L L L L F F A l g g l A F A f . ",
". 3 f j Z Z V V Z A A A A A A A A A A A A A A Z V V Z Z j f 3 . ",
"  . . . O + + + + + O O O O O O O O O O O O + + + + + O . . .   "
};
