/* XPM */
static char *_a61b4bcbfe44bb3acfb86ef8b9ca32fa3W1GCR3OkvdnzlG[] = {
/* columns rows colors chars-per-pixel */
"32 32 182 2 ",
"   c #010607",
".  c #060B0C",
"X  c #080E0F",
"o  c #080F10",
"O  c #0A1112",
"+  c #172123",
"@  c #1F2C2E",
"#  c #273637",
"$  c #27383A",
"%  c #293A3B",
"&  c #38433C",
"*  c #7C571C",
"=  c #7D591E",
"-  c #765924",
";  c #7B5D25",
":  c #7E602A",
">  c #2D3E40",
",  c #2E4344",
"<  c #2C4A4D",
"1  c #314446",
"2  c #3A4742",
"3  c #3B4843",
"4  c #334748",
"5  c #344A4D",
"6  c #2F4F52",
"7  c #354F51",
"8  c #355356",
"9  c #3A5355",
"0  c #365659",
"q  c #38565A",
"w  c #37585C",
"e  c #38595D",
"r  c #3B5E62",
"t  c #3E6265",
"y  c #377A7C",
"u  c #404F4A",
"i  c #485247",
"p  c #44534D",
"a  c #48554D",
"s  c #445750",
"d  c #4A6F5E",
"f  c #686E48",
"g  c #6C7149",
"h  c #7C7242",
"j  c #75764B",
"k  c #456E62",
"l  c #41676A",
"z  c #4C7868",
"x  c #527A65",
"c  c #865D1B",
"v  c #885E1C",
"b  c #8D611D",
"n  c #825F22",
"m  c #93712D",
"M  c #8D7233",
"N  c #8E7538",
"B  c #917131",
"V  c #807845",
"C  c #58806A",
"Z  c #4E8172",
"A  c #548575",
"S  c #AF8C45",
"D  c #257683",
"F  c #267985",
"G  c #267D8B",
"H  c #2A7D89",
"J  c #2C818E",
"K  c #368385",
"L  c #2A8694",
"P  c #298C98",
"I  c #2C8D9C",
"U  c #358A96",
"Y  c #319199",
"T  c #288FA0",
"R  c #2B94A4",
"E  c #2797A9",
"W  c #2996A9",
"Q  c #2D9BAB",
"!  c #3195A5",
"~  c #3D9EA4",
"^  c #339CAC",
"/  c #3C9CAC",
"(  c #269CB0",
")  c #299EB0",
"_  c #3EA3AE",
"`  c #2CA1B5",
"'  c #27A4B9",
"]  c #2DA5BA",
"[  c #2CA8BE",
"{  c #34A3B6",
"}  c #3BA3B3",
"|  c #32A6BA",
" . c #3DA6B8",
".. c #34AABE",
"X. c #3BAABC",
"o. c #619B87",
"O. c #41A0AF",
"+. c #43A5B5",
"@. c #44ABBC",
"#. c #49ABBB",
"$. c #50ACBC",
"%. c #57B0BF",
"&. c #2DADC3",
"*. c #31ADC3",
"=. c #3CAEC1",
"-. c #2DB5CE",
";. c #35B0C5",
":. c #3BB1C5",
">. c #35B3CA",
",. c #3AB6CB",
"<. c #34B8CF",
"1. c #3EB8CD",
"2. c #35BBD3",
"3. c #3DBCD2",
"4. c #43B2C5",
"5. c #4CB2C3",
"6. c #44B6C9",
"7. c #4FB7CB",
"8. c #43B9CD",
"9. c #4BBBCE",
"0. c #52B4C3",
"q. c #5BB7C5",
"w. c #53BCCE",
"e. c #5CBCCC",
"r. c #43BDD3",
"t. c #4BBDD2",
"y. c #64BCCC",
"u. c #6ABDCB",
"i. c #64BFD1",
"p. c #45C1D7",
"a. c #4CC1D5",
"s. c #45C2D8",
"d. c #4CC2D9",
"f. c #52C1D5",
"g. c #5BC3D6",
"h. c #52C4DA",
"j. c #5CC6DA",
"k. c #5EC9DC",
"l. c #74C1CE",
"z. c #62C4D5",
"x. c #6CC4D3",
"c. c #6CC8D6",
"v. c #62C7DB",
"b. c #68C7DA",
"n. c #63CADD",
"m. c #6CCADC",
"M. c #74C5D2",
"N. c #7CC7D5",
"B. c #75CAD6",
"V. c #7DC9D5",
"C. c #73CCDD",
"Z. c #7CCCDA",
"A. c #66CCE0",
"S. c #6DCDE0",
"D. c #74CEE1",
"F. c #79CFE1",
"G. c #7CD1E3",
"H. c #80C7D4",
"J. c #82C9D5",
"K. c #84CFDD",
"L. c #8BCFDA",
"P. c #91CDD7",
"I. c #82D0DC",
"U. c #8BD1DC",
"Y. c #92D2DD",
"T. c #84D4E5",
"R. c #8AD4E3",
"E. c #8FD8E7",
"W. c #94D5E3",
"Q. c #93D8E5",
"!. c #99D9E5",
"~. c #93D9E8",
"^. c #9CDDEA",
"/. c #A2DAE4",
"(. c #A6DCE7",
"). c #B5DFE7",
"_. c #A8E1EC",
"`. c #B1E4EF",
"'. c #BCE5EC",
"]. c #BDE9F1",
"[. c #C0E5EB",
"{. c #D1EDF2",
/* pixels */
"  . . X X X o o o o o o o o o o o X o o o o X X o o o o X . .   ",
". + @ , $ $ , 4 4 4 4 1 4 4 1 1 1 % 1 4 4 1 $ $ 1 4 4 4 1 @ + . ",
". @ 5 u & & 3 p 9 q 0 5 8 w 6 < 6 0 e e e e 6 9 p a p p p 5 @ . ",
"X 1 i - * n m V K I U U J ^ X.^ X.} _ ^ } ..Q y h B n = - i 1 X ",
"o 3 - c v M C ~ ;.t.u.M.K.v.F.C.F.Q.R.x.b.3.p.:.K x M v v - 3 o ",
"o 3 - ; f Z X.a.s.h.j.j.T.D.G.T.H.M.w.J.#.r.v.h.&.R Z g m ; 3 o ",
"o 4 p d U ..d.n.h.h.S.G.G.T.k.g.0.5.| 5.+.} } <.2.-.&.Y k p 4 o ",
"o 4 q H ` r.h.a.r.s.G.G.m.D.D.M.M.%.I | 5.J.N.,.p.s.2.&.F 8 1 o ",
"o 4 q G [ p.h.4.j.k.m.W./.T.n.v.8.>.;.8.@.v.v.#.R._.h.>.Q w $ X ",
"o 4 q H t.k.a.R.T.9.G.C.j.j.f.t.r.d.n.!./.i.C.(.M.!.D.m.^ r $ X ",
"o 4 8 H z.a...=.8.4.d.p.r.X./ ^ X.C.R.~.S.m.G.G.N.M.j.h.^ t $ X ",
"o 1 8 D 4.{ ` 7.} g.p.>...y.x.f.f.w.n.T._.!.9.f.).#.f.r.Q r $ X ",
"X $ 5 F =. .&.Q #.a.2.,.f.t.t.a.C.I.r.h.G.B.X.j.[.O.3.3.^ r $ X ",
"X $ 5 F ;.:.*.;.z.r.r.m.G.y.l.l.g.Z.h.h.p.n.f.a.j.+.z.j.! 0 $ X ",
"X $ 0 D :.{ f.1.m.r.d.d.n.W.N.e.n.g.j.d.k.T.k.3.j.5.v.a.R 8 1 o ",
"X $ 8 J w.t.j.6.D.t.n.h.3.a.D.D.G.G.T.E.`.T.Q.8.3.,.,.j.! 0 4 o ",
"X , 6 D R | C.m.b.X.j.p.a.b.R.~.!.].`.R.D.G.].f.8.5.| t.I 8 1 o ",
"O 9 8 D P W 8.X.g.X.j.n.(.{.(.V.S.A.j.S.n.G.Q.a.8.@.1.m.^ t 4 o ",
"O 7 t L ( T [ ! K.m.v.R.T.L.P.u.f.m.h.k.R.x.x.v.6.] -.2.^ l 4 X ",
"o 5 t G ( T 8.9.E.F.x.'.T.v.f.t.>.3.1.n.K.V.f.G.y.| -.-.| t % X ",
"o 1 8 D E ^ C.3.X.c.t.w.j.c.c.k.p.n.n.U.x.9.D././ | =.[ L t $ X ",
"X % e L &...b.r.R e.h.3.X.6.e.U.Z.z.g.b.C.D.T.Y.^ ` @.4.P 0 $ X ",
"X 1 r { 9.5.y.t.*.+.Z.n.m.n.f. .=.{ ^ t.k._.^.f.,.;.+.q.J 8 $ X ",
"X > l / L.q.$.M.d.,.@.x.m.e.8.>.<.>.r.w.B.g.f.p.m.{ / e.L 8 $ X ",
"o 1 e J | ] W +.6.r.X.} 4.M.U.Z.j.j.g.X.} t.n.h.r.&.] *.H < 1 o ",
"o 4 p k P ) ' W @.4.U.z.f.f.b.g.h.8.@.g.C.h.p.j...[ E Y A s 4 o ",
"o 3 - ; f z R ( | z.Y.J.C.B.Z.D.b.T.W.`.^.G.h.S.3.0.A j S : 2 o ",
"o 3 - c v M x K 4.^.~.D.!.M.u.x./ f.9.v.f.r.3.9._ o.N v b - 3 o ",
"X 1 i - = n M h y X.X.| } ! I I P ] ] R T W W y j N n = - i 1 X ",
". @ 5 p p p p p 9 6 < < < < < < < < < < < < < , p p p p p 5 @ . ",
". + @ 1 4 4 4 4 4 1 $ # # # # # # # # # # # # $ 1 4 4 4 1 @ + . ",
"  . . X o o o o o o X X X X X X X X X X X X X X o o o o X . .   "
};
