/* XPM */
static char *_43486088e0c49becc482caca366f60bYyXSDhdjHSaSdLkj[] = {
/* columns rows colors chars-per-pixel */
"32 32 133 2 ",
"   c #020607",
".  c #060C0D",
"X  c #080E0F",
"o  c #090F10",
"O  c #162122",
"+  c #1F2C2E",
"@  c #273637",
"#  c #27393A",
"$  c #29393A",
"%  c #39433C",
"&  c #7C571C",
"*  c #7D591E",
"=  c #765924",
"-  c #7B5D26",
";  c #2B4345",
":  c #2D4649",
">  c #2C494C",
",  c #314445",
"<  c #3A4742",
"1  c #3C4842",
"2  c #334648",
"3  c #35494A",
"4  c #2E4E51",
"5  c #365255",
"6  c #3A5455",
"7  c #1F6A76",
"8  c #1E727F",
"9  c #37706E",
"0  c #206A76",
"q  c #226E7A",
"w  c #326F70",
"e  c #22717E",
"r  c #28707C",
"t  c #367777",
"y  c #317578",
"u  c #414F4A",
"i  c #495247",
"p  c #44534D",
"a  c #48554D",
"s  c #4A6D5C",
"d  c #686E47",
"f  c #686E48",
"g  c #6C7249",
"h  c #777244",
"j  c #7D7240",
"k  c #456D60",
"l  c #477264",
"z  c #4B7261",
"x  c #4D7D6D",
"c  c #537963",
"v  c #865D1B",
"b  c #895E1A",
"n  c #825F22",
"m  c #906F2F",
"M  c #94712D",
"N  c #8C7233",
"B  c #907131",
"V  c #1E7481",
"C  c #1F7C8B",
"Z  c #237582",
"A  c #2C7480",
"S  c #237986",
"D  c #237E8D",
"F  c #297D8B",
"G  c #327E82",
"H  c #27808F",
"J  c #29808F",
"K  c #2F888F",
"L  c #318085",
"P  c #238393",
"I  c #2A8493",
"U  c #2F8A92",
"Y  c #218798",
"T  c #238A9B",
"R  c #2C8C9D",
"E  c #308997",
"W  c #328D9C",
"Q  c #2B939F",
"!  c #35909F",
"~  c #238EA0",
"^  c #2A8FA0",
"/  c #2593A5",
"(  c #2A92A3",
")  c #2596A9",
"_  c #2C96A8",
"`  c #259AAD",
"'  c #2A9BAE",
"]  c #3494A3",
"[  c #3997A6",
"{  c #3A98A7",
"}  c #349AAB",
"|  c #3B9CAC",
" . c #259EB2",
".. c #2A9EB1",
"X. c #309EB0",
"o. c #26A1B5",
"O. c #2CA2B5",
"+. c #26A4B9",
"@. c #28A5B9",
"#. c #2BA5BA",
"$. c #2DA4B8",
"%. c #2EA7BB",
"&. c #29A7BC",
"*. c #2AA8BC",
"=. c #2CA9BE",
"-. c #32A1B4",
";. c #32A2B4",
":. c #35A5B7",
">. c #3EA2B3",
",. c #3EA3B4",
"<. c #3CA5B6",
"1. c #35A6B9",
"2. c #3BA7B9",
"3. c #30A8BD",
"4. c #34A9BC",
"5. c #3EA9BB",
"6. c #3DABBD",
"7. c #419FAE",
"8. c #43A6B7",
"9. c #40A7B8",
"0. c #45ABBC",
"q. c #41ADBF",
"w. c #47AEBF",
"e. c #49AFBF",
"r. c #34ACC0",
"t. c #3AADC0",
"y. c #3FAFC2",
"u. c #40AFC2",
"i. c #47AFC0",
"p. c #48AFC0",
"a. c #42B2C5",
"s. c #44B1C4",
"d. c #4AB4C6",
/* pixels */
"      X . . o o o o o o o o o o o . o o o o . . o o o o o       ",
"  O + ; # # ; 2 2 2 2 , 2 2 , , , $ , 2 2 , # # , 2 2 2 , + O   ",
"  + 3 u % % 1 p 6 5 5 > 5 5 : : : 5 5 5 5 5 : 5 p a p p p 3 +   ",
"o , i = & n m j 9 e A r q q 0 7 7 q q e q q q w j B n * = i , o ",
"o 1 = v v N c G / ' | ] T T T T T T ( ;... . .` G c N b b = 1 o ",
"o 1 = - d x Q  . .T T T Y P P P ! ! R [ ( `  .+. .( x g M - < o ",
"o 2 p s K / o. .T ~  . .T D D P W ! ( ] | R T  .+.o./ U z p 2 o ",
"o 2 5 q ` +.o.Y ~  .` / T / / ,.0.| P R ;.9.>.P  .+.+.` e 5 , o ",
"o 2 5 q  .+.` D ) ) H W :.o.o.%.3.%.) T H _ ..F ` #.+. .e 5 # . ",
"o 2 5 q  . .Y ~ ` F w.a.#. .` ` ` o.#.t.i.U ' 0.E y.*. .e 5 # . ",
"o 2 5 q  .` Y / / I O.o./ T I S D / o.&.%.R / ..W <.#. .e 5 # . ",
"o , : q ..^ T ) D 2...T P } 5...) R ) o.#.q.I ..8.I  . .e 5 # . ",
". # ; q ;.] T T ] ' T ~ ` ( R T ^ 8.T / #.r.T T } P  . .e 5 # . ",
". @ ; q ( R / D } P ~ ` / ] { [ R W T T o.#.` V T I 4.o.e : # . ",
". @ ; 0 T T ` C / V ` / T _ R U / S T Y o.+...8 T R 6.o.e : , o ",
". @ ; 7 T Y ` C ~ 8 ` / P P T ) / C T Y  .*.s.Z ) ( ( ` e : , o ",
". # ; 7 T Y ` C ~ V ` / P P / / D ) ~ Y  .=.d.S O.>.T ` e : , o ",
"o , : 7 T Y ` C / C / / T ,.! I )  .T T o.=.d.S ' | ~ ` e 5 2 o ",
"o , : 0 T Y ` C ) ) D ;./ } 7.| / T T  .r.t.,.P _ P `  .e 6 , o ",
"o 2 5 0 T Y ` C / ' I 6.o.( R T Y T  .=.a.>.( ' ] T / / e 5 # . ",
"o , > 0 T Y  .~ P 6.( _ ..1.6.%.#.#.#.3.| ( ..6.D ' ] T e 5 # . ",
". $ 5 q T T o. .D p.O.T D I E 0.s.6...( ( ..3.w.D ( [ } e 5 # . ",
"o , 5 q X.] >.3.) R 6.%.' ` ) I F F S T ..u.w.R / / { 1.Z 5 # . ",
". $ 5 e ;.| | 4.#.` R e.d.t.%.O. .`  .1.;.P F `  .~ } 1.Z 5 # . ",
"o , 5 q  . .R | 4.o./ H J | 0.0.) / / T D / `  .~ T  . .e > , o ",
"o 2 p k U / ` R | _ 1.O.` T I P D D P T `  ./ T T ` / U l p 2 o ",
"o 1 = - f x Q ` T T ] ] T } 2.' ` ` `  . .~ Y T ` ( x g M - < o ",
"o 1 = v v N c L /  ./ T T R W P P P P P P T ` / L x N v b = 1 o ",
"o , i = * n N h t / / / / T T P P Y P P P / / y h N n * = i , o ",
"  + 3 p p p a p 6 4 > > > > > > > > > > > > > : p a p p p 3 +   ",
"  O + , 2 2 2 2 2 , # @ @ @ @ @ @ @ @ @ @ @ @ # , 2 2 2 , + O   ",
"      o o o o o o o . . . . . . . . . . . . . . o o o o o       "
};
