/* XPM */
static char *_fddb80402874728fc95d31efca5c2d86M7CFPZiQdu0ryDE[] = {
/* columns rows colors chars-per-pixel */
"32 32 23 1 ",
"  c #E04006",
". c white",
"X c #E03F04",
"o c #E03D02",
"O c #E14813",
"+ c #F09D82",
"@ c #E34F1B",
"# c #F2AE97",
"$ c #FEF4F1",
"% c #E7673A",
"& c #F4B6A1",
"* c #EB825C",
"= c #F8D0C2",
"- c #E9744B",
"; c #FBE5DD",
": c #FFFBF9",
"> c #ED8F6E",
", c #E45725",
"< c #FADCD2",
"1 c #FDEEE9",
"2 c #EF9A7D",
"3 c #F5BEAC",
"4 c #F1A88E",
/* pixels */
"....&OOOOOOOOOOOOOOOOOOOOOOOOOO+",
"....#XXXXXXXXXXXXXX %>-OX XXX X+",
"....#X            o-1.:+      X+",
"....#X             3...;,X    X+",
"....#X             3...;,X    X+",
"....#X    ooooooooo-;:$2      X+",
"....#X    %*********+3* X     X+",
"....#X  o%;.........::<-X     X+",
"....#X   &.............;%o    X+",
"....#X o-$.12>+1........=,X   X+",
"....#XX@=..+oo%$.....:;..&Ooooo2",
"....#XX>..=@X #......=%=.:&++++=",
"....#XO=.$-oX,;......>o,<.......",
"....#X >=>  o>......;,Xo%<$$$$$:",
"....#X     XO=......4X  X,%%%%%#",
"....#X     o%$.....$-o   Xooooo2",
"....#X     o*:......#         X+",
"....#X     o+...;:..$-o       X+",
"....#X      3..$-&...<,X      X+",
"...$+oXXXXo@<..=O,=...4       X+",
".$4-,@@@@@@-1..+oo%1..$-o     X+",
"$**=<<<<<<;1..$%o X>:..=@X    X+",
"3,;...........=OX X #...+     X+",
"4,4#&&&&&&&&&&*X   X@=..1-o   X+",
"3%%%,X        X     o%;..=@X  X+",
":$$$4X               X*$..2X  X+",
"....#X                 2:.1%X X+",
"....#X                X *4&*X X+",
"...:>X              X %2&=#,X X2",
"..1>               o,&$..3,X o@&",
".;-XXXXXXXXXXXXXXX -<..$+OoX -=:",
";*@@@@@@@@@@@@@@@@>1..$>OOO@21.."
};
