/* XPM */
static char *f759b8815d04480291e44d168d8ca899mjf7osnMPHhiU6c9[] = {
/* columns rows colors chars-per-pixel */
"32 25 60 1 ",
"  c #47704C",
". c #47565C",
"X c #060708",
"o c #47575D",
"O c #4E5E65",
"+ c black",
"@ c black",
"# c #0F2734",
"$ c #030607",
"% c None",
"& c #46545A",
"* c #010305",
"= c #384449",
"- c black",
"; c #040A0D",
": c black",
"> c black",
", c #262E31",
"< c #070909",
"1 c #07090A",
"2 c #47565C",
"3 c #47565C",
"4 c #030404",
"5 c #47565C",
"6 c #47565C",
"7 c black",
"8 c #47565C",
"9 c #296A8E",
"0 c #296B90",
"q c black",
"w c #143445",
"e c #242C2F",
"r c #040C10",
"t c #29688A",
"y c #245876",
"u c #245F81",
"i c #286384",
"p c #375B6D",
"a c #435055",
"s c #355F76",
"d c #264759",
"f c #214F69",
"g c #225A7A",
"h c #173B4E",
"j c #030607",
"k c #245E7E",
"l c #0E2532",
"z c #1D2326",
"x c #24485B",
"c c #305468",
"v c #2D3B41",
"b c #213F51",
"n c #20526F",
"m c #0F2634",
"M c #112C3C",
"N c #27363E",
"B c #48565B",
"V c #445962",
"C c #324046",
"Z c #10171A",
/* pixels */
"     =26&&5          5&&62=     ",
"     o33o              o33o     ",
"     o..o=7@@@@@@@@@@7=o..o     ",
"     O..OX-q%%%%%%%%q-XO..O     ",
"   =28&&1*#llllllllll#*1&&82=   ",
"   o..oX-rk9999999999kr-Xo..o   ",
"   o..OX+rktyyt99tyytkr+XO..o   ",
"   o..OX+rkivvi99ivvikr+XO..o   ",
"   o..OX+rkiNNi99iNNikr+XO..o   ",
"   o..OX+rkieei00ieeikr+XO..o   ",
"   o..OX+rktxxi99ixxtkr+XO..o   ",
"   o..OX+ru0000000000ur+XO..o   ",
"   X,,$$<jwhhhhhhhhhhwj<$$,,X   ",
"   X>qqqqqqqqqqqqqqqqqqqqqq>X   ",
" :*;#MwwwwwwwwwwwwwwwwwwwwM#;*: ",
" X>rfg90000000000000000009gfr>X ",
"$;#wngt999999999999999999tgnw#;$",
"qrfgygt999999999999999999tgygfrq",
"qjwbcpt999999999999999999tpcbwjq",
"qjzeaVt999999999999999999tVaezjq",
"qjzevCppddppddpsspddppddppCvezjq",
"qjzezeaaeeaaeeaBBaeeaaeeaaezezjq",
"*4<ZbxccdxssffssssffssxdccxbZ<4*",
" X-rfgyyggt9009999009tggyygfr-X ",
" :1$#mmMnguuuuuuuuuuuugnMmm#$1: "
};
