/* XPM */
static char *c4cf4aa2851d41758758f25eee75922aYV7SZqkwmg50Xgtq[] = {
/* columns rows colors chars-per-pixel */
"32 32 135 2 ",
"   c #020204",
".  c #0B0D1B",
"X  c #0D0F1F",
"o  c #0C0F1F",
"O  c #0C0F1E",
"+  c #4554AB",
"@  c #5061C6",
"#  c #5065C8",
"$  c #5060C6",
"%  c #5D74E8",
"&  c #6292FA",
"*  c #6397FD",
"=  c #6396FD",
"-  c #4F60C4",
";  c #5D78E9",
":  c #6297FC",
">  c #639CFF",
",  c #639BFF",
"<  c #5169CA",
"1  c #6293FB",
"2  c #0D1422",
"3  c #5683DC",
"4  c #649CFF",
"5  c #0E1523",
"6  c #5688DF",
"7  c #5687DF",
"8  c #629AFD",
"9  c #588AE3",
"0  c #5687DE",
"q  c #6199FB",
"w  c #588AE4",
"e  c #4E7BCA",
"r  c #1D2B4D",
"t  c #151E38",
"y  c #161F39",
"u  c #649DFF",
"i  c #5A8DE8",
"p  c #203253",
"a  c #1F294A",
"s  c #5A67B7",
"d  c #6573CA",
"f  c #6198FB",
"g  c #5882DC",
"h  c #7282D1",
"j  c #D9DDF4",
"k  c #D2D5E3",
"l  c #CDD0DE",
"z  c #6195FC",
"x  c #6F88EC",
"c  c #DBDFF8",
"v  c #CDCDCD",
"b  c #373736",
"n  c #1E1E1D",
"m  c #6194FB",
"M  c #7286EA",
"N  c #D1D3E1",
"B  c black",
"V  c #7287EA",
"C  c #CCCEDC",
"Z  c #232222",
"A  c #161616",
"S  c gray1",
"D  c #CBCDDB",
"F  c #959595",
"G  c #323232",
"H  c #D1D3E0",
"J  c #3B3A39",
"K  c #383836",
"L  c #D2D3E1",
"P  c #6E87EB",
"I  c #D8DCF6",
"U  c #BCBEC9",
"Y  c #373738",
"T  c #232322",
"R  c #343435",
"E  c #BDBECA",
"W  c #639AFF",
"Q  c #6494FA",
"!  c #6D86EA",
"~  c #7C8BE5",
"^  c #C1C5DD",
"/  c #CCCEDB",
"(  c #CDCFDC",
")  c #C2C5DE",
"_  c #6091F9",
"`  c #5E79E8",
"'  c #6F84E9",
"]  c #6296FC",
"[  c #6195FB",
"{  c #6196FD",
"}  c #598BE4",
"|  c #6299FB",
" . c #639AFE",
".. c #4F7CCB",
"X. c #162238",
"o. c #1F304F",
"O. c #6299FC",
"+. c #517ECF",
"@. c #1C2B47",
"#. c #0C131F",
"$. c #4E7AC8",
"%. c #598CE6",
"&. c #29406A",
"*. c #4369AD",
"=. c #152035",
"-. c #4E7AC9",
";. c #5889E1",
":. c #141F33",
">. c #5688E0",
",. c #5586DE",
"<. c #4F7CCC",
"1. c #141F34",
"2. c #0F151F",
"3. c #292F3B",
"4. c #2D3440",
"5. c #2D333F",
"6. c #639BFE",
"7. c #4E7BCC",
"8. c #2A3447",
"9. c #AAA9A9",
"0. c #C2C1BF",
"q. c #C0BFBE",
"w. c #629AFE",
"e. c #5481D1",
"r. c #323D52",
"t. c #2C333E",
"y. c #516ACB",
"u. c #6397FE",
"i. c #6299FD",
"p. c #5789E3",
"a. c #5165C9",
"s. c #6392FC",
"d. c #659DFF",
"f. c #4554AC",
"g. c white",
/* pixels */
"  . X o O O O O O O O O O O O O O O O O O O O O O O O O o X .   ",
". + @ # # # # # # # # # # # # # # # # # # # # # # # # # # @ + . ",
"X $ % & * = = = = = = = = = = = = = = = = = = = = = = * & % $ X ",
"o - ; : > , , , , , , , , , , , , , , , , , , , , , , > : ; - o ",
"X < 1 , , , , , , , , , , , , , , , , , , , , , , , , , , 1 < X ",
"2 3 4 , , , , , , , , , , , , , , , , , , , , , , , , , , 4 3 2 ",
"5 6 4 , , , 4 4 4 4 4 4 , , , , , , , , 4 4 4 4 4 4 , , , 4 6 5 ",
"5 7 4 , 4 8 9 0 6 6 0 9 8 4 , , , , 4 8 9 0 6 6 0 9 8 4 , 4 7 5 ",
"5 7 4 q w e r t y y t r e w q , , q w e r t y y t r e w q 4 7 5 ",
"5 7 u i p a s d d d d s a p i 4 4 i p a s d d d d s a p i u 7 5 ",
"5 7 4 f g h j k l l k j h g f , , f g h j k l l k j h g f 4 7 5 ",
"5 7 u z x c v b n n b v c x z , , z x c v b n n b v c x z u 7 5 ",
"5 7 u m M N b B B B B b N M m , , m M N b B B B B b N M m u 7 5 ",
"5 7 u m V C Z A S B B n C V m , , m V C Z A S B B n C V m u 7 5 ",
"5 7 u m V D b F G S B n C V m , , m V D b F G S B n C V m u 7 5 ",
"5 7 u m M H J G F A B K L M m , , m M H J G F A B K L M m u 7 5 ",
"5 7 u z P I U Y b T R E I P z , , z P I U Y b T R E I P z u 7 5 ",
"5 7 4 W Q ! ~ ^ / ( ) ~ ! Q W , , W Q ! ~ ^ / ( ) ~ ! Q W 4 7 5 ",
"5 7 4 , , _ ` ' V V ' ` _ , , , , , , _ ` ' V V ' ` _ , , 4 7 5 ",
"5 7 4 , , , ] [ { { [ ] , , , , , , , , ] [ { { [ ] , , , 4 7 5 ",
"5 7 4 , , , > 8 } 9 | , , , , , , , , , , | 9 } 8 > , , , 4 7 5 ",
"5 7 4 , , ,  ...X.o.i 4 , , , , , , , , 4 i o.X... ., , , 4 7 5 ",
"5 7 4 , , O.+.@.#.$.8 , , , , , , , , , , 8 $.#.@.+.O., , 4 7 5 ",
"5 7 4 , 4 %.&.*.=.-., 4 4 4 4 4 4 4 4 4 4 , -.=.*.&.%.4 , 4 7 5 ",
"5 7 4 , , f i ;.X.:.-.>.,.,.,.,.,.,.,.,.>.-.:.X.;.i f , , 4 7 5 ",
"5 7 4 , , , 4 8 <.1.2.3.4.5.5.5.5.5.5.4.3.2.1.<.8 4 , , , 4 7 5 ",
"5 6 4 , , , , , 6.7.8.9.0.q.q.q.q.q.q.0.9.8.7.6., , , , , 4 6 5 ",
"2 3 4 , , , , , , w.e.r.t.5.5.5.5.5.5.t.r.e.w., , , , , , 4 3 2 ",
"o y.u.> , , , , , , i.p.,.,.,.,.,.,.,.,.p.i., , , , , , > u.y.o ",
"o a.s.u.4 4 4 4 4 4 4 u d.d.d.d.d.d.d.d.u 4 4 4 4 4 4 4 u.s.a.o ",
". f.a.y.3 6 7 7 7 7 7 7 7 7 7 7 7 7 7 7 7 7 7 7 7 7 6 3 y.a.f.. ",
"  . o o 2 5 5 5 5 5 5 5 5 5 5 5 5 5 5 5 5 5 5 5 5 5 5 2 o o .   "
};
