/* XPM */
static char *c13fb46c38094758c02fd960ef12adf22g906uDILRoNRrBH[] = {
/* columns rows colors chars-per-pixel */
"32 32 26 1 ",
"  c #777777",
". c #010100",
"X c #1A0D01",
"o c #0F0900",
"O c gray47",
"+ c #3F2500",
"@ c #472A00",
"# c #11100E",
"$ c #1F1D19",
"% c #532E01",
"& c #6A6A6B",
"* c #C6530D",
"= c #261508",
"- c #767676",
"; c #623501",
": c #372105",
"> c #B34A0C",
", c #686969",
"< c gray37",
"1 c #E65D10",
"2 c #606060",
"3 c #E15C10",
"4 c #A1430A",
"5 c #5B5B5B",
"6 c #545453",
"7 c #783A05",
/* pixels */
"          -&5#....#5&-          ",
"         -2$#......#$2-         ",
"        O&$..........$&O        ",
"        O,#.....XXX..#,O        ",
"        O,#...X=>*>=.#,O        ",
"        O,#.X=>*311>=#,O        ",
"        O,#X>>3113*3>=,O        ",
"        O&$X>%*11*@*>:&O        ",
"         -<=47*11*74:2-         ",
"         O&$=>3113>=$&O         ",
"           <#=>**>=#<           ",
"         -&<#oXXXXo#<&-         ",
"         2$=++oooo++=$2         ",
"       -2$++X@@@@@@X++$2-       ",
"      O&$o+@o@%;;%@o@+o$&O      ",
"      O,#:=:X@;**;@X:=:#,O      ",
"      -<=@+X+%;**;%+X+@=<-      ",
"     O&$:@+o@%%%%%%@o+@:$&O     ",
"     O,#oooo+@+XX+@+oooo#,O     ",
"     O&$:%@oooX++Xooo@%:$&O     ",
"      -6:**=:%%;;%%:=**:6-      ",
"     O&$%**%=>****>=%**%$&O     ",
"     O&$+;;@X%;;;;%X@;;+$&O     ",
"      -2$+@+X+@@@@+X+@+$2-      ",
"        2$#X:XooooX:X#$2        ",
"        -&5#+@+..+@+#5&-        ",
"         O&#X++oo++X#&O         ",
"         O,#:Xo..oX:#,O         ",
"         -<=@+o..o+@=<-         ",
"        O&$%;;%oo%;;%$&O        ",
"        O,=4>>4oo4>>4=,O        ",
"        O,#XXXX..XXXX#,O        "
};
