/* XPM */
static char *_c50e4f34e9d4d09e852ea63e164ac73NHtXjJT3nA01aWL3[] = {
/* columns rows colors chars-per-pixel */
"32 32 174 2 ",
"   c #020204",
".  c #0B0D1B",
"X  c #0D0F1F",
"o  c #0C0F1F",
"O  c #0C0F1E",
"+  c #4554AB",
"@  c #5061C6",
"#  c #5065C8",
"$  c #5060C6",
"%  c #5D74E8",
"&  c #6292FA",
"*  c #6397FD",
"=  c #6396FD",
"-  c #4F60C4",
";  c #5D78E9",
":  c #6297FC",
">  c #639CFF",
",  c #639BFF",
"<  c #5169CA",
"1  c #6293FB",
"2  c #649CFF",
"3  c #0D1422",
"4  c #5683DC",
"5  c #629AFD",
"6  c #588AE3",
"7  c #5687DE",
"8  c #0E1523",
"9  c #5688DF",
"0  c #6199FB",
"q  c #588AE4",
"w  c #4F7BCB",
"e  c #1F3151",
"r  c #17243C",
"t  c #18253D",
"y  c #5687DF",
"u  c #649DFF",
"i  c #5A8DE8",
"p  c #203353",
"a  c #1F304F",
"s  c #4F7CCB",
"d  c #5788E0",
"f  c #5889E2",
"g  c #6094F9",
"h  c #6296FD",
"j  c #6494FB",
"k  c #6E87EB",
"l  c #7085E8",
"z  c #7187EA",
"x  c #7287EA",
"c  c #7089EC",
"v  c #6495FB",
"b  c #639AFF",
"n  c #6393F9",
"m  c #7D93ED",
"M  c #DDE1F9",
"N  c #EAECF9",
"B  c #D1D3E0",
"V  c #CCCEDC",
"C  c #CDCFDC",
"Z  c #C2C6DE",
"A  c #7B91EB",
"S  c #6394FA",
"D  c #6195FC",
"F  c #6E87EA",
"G  c #FDFDFD",
"H  c #CECECD",
"J  c #373736",
"K  c #1E1E1D",
"L  c #1F1E1D",
"P  c #363536",
"I  c #AAAEC6",
"U  c #6C84E8",
"Y  c #6196FC",
"T  c #6194FB",
"R  c #EEF0FD",
"E  c #E6E6E5",
"W  c #353535",
"Q  c black",
"!  c #020100",
"~  c #232532",
"^  c #556ACD",
"/  c #EDEFFD",
"(  c #E1E1E0",
")  c gray13",
"_  c #161616",
"`  c gray1",
"'  c #090B19",
"]  c #5166C9",
"[  c #E0E0DF",
"{  c gray21",
"}  c #959595",
"|  c #323232",
" . c #E6E6E4",
".. c #393838",
"X. c #010100",
"o. c #DADEF8",
"O. c #EDEFFA",
"+. c #CBCBCC",
"@. c #3A3A39",
"#. c #202021",
"$. c #252732",
"%. c #A8ACC6",
"&. c #6C85E8",
"*. c #6494FA",
"=. c #6D85EA",
"-. c #7E8DE8",
";. c #DADEF6",
":. c #CCCEDB",
">. c #BDC1D9",
",. c #6372CD",
"<. c #6B83E8",
"1. c #6495FA",
"2. c #6091F9",
"3. c #5E79E8",
"4. c #6D83E8",
"5. c #6F84EA",
"6. c #607AE9",
"7. c #6296FC",
"8. c #6195FB",
"9. c #6196FD",
"0. c #598BE4",
"q. c #6299FB",
"w. c #639AFE",
"e. c #162238",
"r. c #6299FC",
"t. c #517ECF",
"y. c #1C2B47",
"u. c #0B101B",
"i. c #446BB0",
"p. c #6198FB",
"a. c #598CE6",
"s. c #29406A",
"d. c #446AAF",
"f. c #0C121E",
"g. c #131E32",
"h. c #4D79C8",
"j. c #5687E0",
"k. c #5586DE",
"l. c #040404",
"z. c #272D37",
"x. c #2B323E",
"c. c #2B313D",
"v. c #0A101C",
"b. c #161615",
"n. c #AEADAD",
"m. c #DFDFDE",
"M. c #E2E1E1",
"N. c #E2E1E0",
"B. c #152035",
"V. c #343434",
"C. c #CBCBCB",
"Z. c #E4E4E4",
"A. c #E2E2E2",
"S. c #507DCD",
"D. c #131E31",
"F. c #020303",
"G. c #1B1A1A",
"H. c gray12",
"J. c #516ACB",
"K. c #6397FE",
"L. c #639BFE",
"P. c #5165C9",
"I. c #6392FC",
"U. c #507ECF",
"Y. c #0C131F",
"T. c #0D1421",
"R. c #4554AC",
"E. c #5788DF",
"W. c #5686DC",
"Q. c #4C77C4",
"!. c #4B75C0",
"~. c #0E1625",
"^. c #0E1725",
"/. c white",
/* pixels */
"  . X o O O O O O O O O O O O O O O O O O O O O O O O O o X .   ",
". + @ # # # # # # # # # # # # # # # # # # # # # # # # # # @ + . ",
"X $ % & * = = = = = = = = = = = = = = = = = = = = = = * & % $ X ",
"o - ; : > , , , , , , , , , , , , , , , , , , , , , , > : ; - o ",
"X < 1 , , , 2 2 2 2 2 2 , , , , , , , , 2 2 2 2 2 2 , , , 1 < X ",
"3 4 2 , 2 5 6 7 7 7 7 6 5 2 , , , , 2 5 6 7 7 7 7 6 5 2 , 2 4 3 ",
"8 9 2 0 q w e r t t r e w q 0 , , 0 q w e r t t r e w q 0 2 9 8 ",
"8 y u i p a s d 9 9 d s a p i 2 2 i p a s d 9 9 d s a p i u y 8 ",
"8 y 2 0 f f g h h h h g f f 0 , , 0 f f g h h h h g f f 0 2 y 8 ",
"8 y 2 , > j k l z x x c v > , , , , > j k l z x x c v > , 2 y 8 ",
"8 y 2 b n m M N B V C Z A S b , , b n m M N B V C Z A S b 2 y 8 ",
"8 y u D F M G H J K L P I U Y , , D F M G H J K L P I U Y u y 8 ",
"8 y u T l R E W Q Q Q ! ~ ^ h , , T l R E W Q Q Q ! ~ ^ h u y 8 ",
"8 y u T l / ( ) _ ` Q Q ' ] = , , T l / ( ) _ ` Q Q ' ] = u y 8 ",
"8 y u T l / [ { } | ` Q ' ] = , , T l / [ { } | ` Q ' ] = u y 8 ",
"8 y u T l R  ...| } _ X.~ ^ h , , T l R  ...| } _ X.~ ^ h u y 8 ",
"8 y u D F o.O.+.@.J #.$.%.&.Y , , D F o.O.+.@.J #.$.%.&.Y u y 8 ",
"8 y 2 b *.=.-.;.B :.>.,.<.1.b , , b *.=.-.;.B :.>.,.<.1.b 2 y 8 ",
"8 y 2 , , 2.3.4.x x 5.6.2., , , , , , 2.3.4.x x 5.6.2., , 2 y 8 ",
"8 y 2 , , , 7.8.9.9.8.7., , , , , , , , 7.8.9.9.8.7., , , 2 y 8 ",
"8 y 2 , , , > 5 0.6 q., , , , , , , , , , q.6 0.5 > , , , 2 y 8 ",
"8 y 2 , , , w.s e.e i 2 , , , , , , , , 2 i e e.s w., , , 2 y 8 ",
"8 y 2 , , r.t.y.u.i.p.u 2 2 2 2 2 2 2 2 u p.i.u.y.t.r., , 2 y 8 ",
"8 y 2 , 2 a.s.d.f.g.h.j.k.k.k.k.k.k.k.k.j.h.g.f.d.s.a.2 , 2 y 8 ",
"8 y 2 , , p.i 7 f.l.z.x.c.c.c.c.c.c.c.c.x.z.l.f.7 i p., , 2 y 8 ",
"8 y 2 , , , u d v.b.n.m.M.N.N.N.N.N.N.M.m.n.b.v.d u , , , 2 y 8 ",
"8 9 2 , , , 2 0.B.` V.C.Z.A.A.A.A.A.A.Z.C.V.` B.0.2 , , , 2 9 8 ",
"3 4 2 , , , , 5 S.D.F.G.H.H.H.H.H.H.H.H.G.F.D.S.5 , , , , 2 4 3 ",
"o J.K.> , , , , L.S.g.Q Q Q Q Q Q Q Q Q Q g.S.L., , , , > K.J.o ",
"o P.I.K.2 2 2 2 u 2 U.e.Y.T.T.T.T.T.T.Y.e.U.2 u 2 2 2 2 K.I.P.o ",
". R.P.J.4 9 y y y E.W.Q.!.!.!.!.!.!.!.!.Q.W.E.y y y 9 4 J.P.R.. ",
"  . o o 3 8 8 8 8 8 8 ~.^.^.^.^.^.^.^.^.~.8 8 8 8 8 8 3 o o .   "
};
