/* XPM */
static char *_3012343403b4549e0cf50c7693355d7TOejZmw6feyTnEe3[] = {
/* columns rows colors chars-per-pixel */
"32 32 175 2 ",
"   c #020204",
".  c #0B0D1B",
"X  c #0D0F1F",
"o  c #0C0F1F",
"O  c #0C0F1E",
"+  c #4554AB",
"@  c #5061C6",
"#  c #5065C8",
"$  c #5060C6",
"%  c #5D74E8",
"&  c #6292FA",
"*  c #6397FD",
"=  c #6396FD",
"-  c #4F60C4",
";  c #5D78E9",
":  c #6297FC",
">  c #639CFF",
",  c #639BFF",
"<  c #5169CA",
"1  c #6293FB",
"2  c #649CFF",
"3  c #0D1422",
"4  c #5683DC",
"5  c #629AFD",
"6  c #588AE3",
"7  c #5687DE",
"8  c #0E1523",
"9  c #5688DF",
"0  c #6199FB",
"q  c #588AE4",
"w  c #4F7BCB",
"e  c #1F3151",
"r  c #17243C",
"t  c #18253D",
"y  c #5687DF",
"u  c #649DFF",
"i  c #5A8DE8",
"p  c #203353",
"a  c #1F304F",
"s  c #4F7CCB",
"d  c #5788E0",
"f  c #5889E2",
"g  c #6094F9",
"h  c #6296FD",
"j  c #6495FB",
"k  c #7089EC",
"l  c #7287EA",
"z  c #7187EA",
"x  c #7085E8",
"c  c #6E87EB",
"v  c #6494FB",
"b  c #639AFF",
"n  c #6394FA",
"m  c #7B91EB",
"M  c #C2C6DE",
"N  c #CDCFDC",
"B  c #CCCEDC",
"V  c #D1D3E0",
"C  c #EAECF9",
"Z  c #DDE1F9",
"A  c #7D93ED",
"S  c #6393F9",
"D  c #6196FC",
"F  c #6C84E8",
"G  c #AAAEC6",
"H  c #363536",
"J  c #1F1E1D",
"K  c #1E1E1D",
"L  c #373736",
"P  c #CECECD",
"I  c #FDFDFD",
"U  c #6E87EA",
"Y  c #6195FC",
"T  c #556ACD",
"R  c #232432",
"E  c black",
"W  c gray21",
"Q  c #E6E6E5",
"!  c #EEF0FD",
"~  c #6194FB",
"^  c #5166C9",
"/  c #0E101D",
"(  c #181717",
")  c gray1",
"_  c #1D1D1D",
"`  c #E1E1E0",
"'  c #EDEFFD",
"]  c #4F64C8",
"[  c #222432",
"{  c #969695",
"}  c #323232",
"|  c #262835",
" . c #343432",
".. c #959595",
"X. c #161616",
"o. c #E7E6E5",
"O. c #6C85E8",
"+. c #A7ABC5",
"@. c #282A35",
"#. c #343535",
"$. c #232322",
"%. c #CCCCCD",
"&. c #EDEFFA",
"*. c #DADEF8",
"=. c #6495FA",
"-. c #6B83E8",
";. c #6372CC",
":. c #BCC0D8",
">. c #D2D3E1",
",. c #DADEF6",
"<. c #7E8DE8",
"1. c #6D85EA",
"2. c #6494FA",
"3. c #6091F9",
"4. c #607AE9",
"5. c #6F84EA",
"6. c #6D83E8",
"7. c #5E79E8",
"8. c #6296FC",
"9. c #6195FB",
"0. c #6196FD",
"q. c #598BE4",
"w. c #6299FB",
"e. c #639AFE",
"r. c #162238",
"t. c #6299FC",
"y. c #517ECF",
"u. c #1C2B47",
"i. c #0B101B",
"p. c #446BB0",
"a. c #6198FB",
"s. c #598CE6",
"d. c #29406A",
"f. c #446AAF",
"g. c #0C121E",
"h. c #131E32",
"j. c #4D79C8",
"k. c #5687E0",
"l. c #5586DE",
"z. c #040404",
"x. c #272D37",
"c. c #2B323E",
"v. c #2B313D",
"b. c #0A101C",
"n. c #161615",
"m. c #AEADAD",
"M. c #DFDFDE",
"N. c #E2E1E1",
"B. c #E2E1E0",
"V. c #152035",
"C. c #343434",
"Z. c #CBCBCB",
"A. c #E4E4E4",
"S. c #E2E2E2",
"D. c #507DCD",
"F. c #131E31",
"G. c #020303",
"H. c #1B1A1A",
"J. c gray12",
"K. c #516ACB",
"L. c #6397FE",
"P. c #639BFE",
"I. c #5165C9",
"U. c #6392FC",
"Y. c #507ECF",
"T. c #0C131F",
"R. c #0D1421",
"E. c #4554AC",
"W. c #5788DF",
"Q. c #5686DC",
"!. c #4C77C4",
"~. c #4B75C0",
"^. c #0E1625",
"/. c #0E1725",
"(. c white",
/* pixels */
"  . X o O O O O O O O O O O O O O O O O O O O O O O O O o X .   ",
". + @ # # # # # # # # # # # # # # # # # # # # # # # # # # @ + . ",
"X $ % & * = = = = = = = = = = = = = = = = = = = = = = * & % $ X ",
"o - ; : > , , , , , , , , , , , , , , , , , , , , , , > : ; - o ",
"X < 1 , , , 2 2 2 2 2 2 , , , , , , , , 2 2 2 2 2 2 , , , 1 < X ",
"3 4 2 , 2 5 6 7 7 7 7 6 5 2 , , , , 2 5 6 7 7 7 7 6 5 2 , 2 4 3 ",
"8 9 2 0 q w e r t t r e w q 0 , , 0 q w e r t t r e w q 0 2 9 8 ",
"8 y u i p a s d 9 9 d s a p i 2 2 i p a s d 9 9 d s a p i u y 8 ",
"8 y 2 0 f f g h h h h g f f 0 , , 0 f f g h h h h g f f 0 2 y 8 ",
"8 y 2 , > j k l l z x c v > , , , , > j k l l z x c v > , 2 y 8 ",
"8 y 2 b n m M N B V C Z A S b , , b n m M N B V C Z A S b 2 y 8 ",
"8 y u D F G H J K L P I Z U Y , , D F G H J K L P I Z U Y u y 8 ",
"8 y u h T R E E E E W Q ! x ~ , , h T R E E E E W Q ! x ~ u y 8 ",
"8 y u = ^ / ( ) E E _ ` ' x ~ , , = ^ / ( ) E E _ ` ' x ~ u y 8 ",
"8 y u = ] [ { } ) E _ ` ' x ~ , , = ] [ { } ) E _ ` ' x ~ u y 8 ",
"8 y u h T |  ...X.E W o.! x ~ , , h T |  ...X.E W o.! x ~ u y 8 ",
"8 y u D O.+.@.#.$.L %.&.*.U Y , , D O.+.@.#.$.L %.&.*.U Y u y 8 ",
"8 y 2 b =.-.;.:.N >.,.<.1.2.b , , b =.-.;.:.N >.,.<.1.2.b 2 y 8 ",
"8 y 2 , , 3.4.5.l l 6.7.3., , , , , , 3.4.5.l l 6.7.3., , 2 y 8 ",
"8 y 2 , , , 8.9.0.0.9.8., , , , , , , , 8.9.0.0.9.8., , , 2 y 8 ",
"8 y 2 , , , > 5 q.6 w., , , , , , , , , , w.6 q.5 > , , , 2 y 8 ",
"8 y 2 , , , e.s r.e i 2 , , , , , , , , 2 i e r.s e., , , 2 y 8 ",
"8 y 2 , , t.y.u.i.p.a.u 2 2 2 2 2 2 2 2 u a.p.i.u.y.t., , 2 y 8 ",
"8 y 2 , 2 s.d.f.g.h.j.k.l.l.l.l.l.l.l.l.k.j.h.g.f.d.s.2 , 2 y 8 ",
"8 y 2 , , a.i 7 g.z.x.c.v.v.v.v.v.v.v.v.c.x.z.g.7 i a., , 2 y 8 ",
"8 y 2 , , , u d b.n.m.M.N.B.B.B.B.B.B.N.M.m.n.b.d u , , , 2 y 8 ",
"8 9 2 , , , 2 q.V.) C.Z.A.S.S.S.S.S.S.A.Z.C.) V.q.2 , , , 2 9 8 ",
"3 4 2 , , , , 5 D.F.G.H.J.J.J.J.J.J.J.J.H.G.F.D.5 , , , , 2 4 3 ",
"o K.L.> , , , , P.D.h.E E E E E E E E E E h.D.P., , , , > L.K.o ",
"o I.U.L.2 2 2 2 u 2 Y.r.T.R.R.R.R.R.R.T.r.Y.2 u 2 2 2 2 L.U.I.o ",
". E.I.K.4 9 y y y W.Q.!.~.~.~.~.~.~.~.~.!.Q.W.y y y 9 4 K.I.E.. ",
"  . o o 3 8 8 8 8 8 8 ^././././././././.^.8 8 8 8 8 8 3 o o .   "
};
