/* XPM */
static char *_734e0cc4ebd4953faf64ccd62a76895lOkcFnMcTCUm6t67[] = {
/* columns rows colors chars-per-pixel */
"32 32 7 1 ",
"  c #1B262E",
". c #070E13",
"X c #141E25",
"o c #202E37",
"O c #0C151A",
"+ c #010202",
"@ c #293842",
/* pixels */
"++++++++++++++++++++++++++++++++",
"+.X     .        XO   XXO    X.+",
"+X@@@@o@O@@@@@o@@o @@@ooX@@@@@X+",
"+X@ ooo OooooooooXXo  o Xooo oX+",
"+Oooooo . oo ooooXOoo o Ooo  oX+",
"+OOOXXOO.OOOOOOOO..OXXOO.OOOOOO+",
"+O X.X XXX .O  XOXXO.X XXXX.XX.+",
"+X@oO@@ooo@O@@@ooo oO@@@oo@O@@X+",
"+OoX.  ooooO ooooXXX. o oo .ooX+",
"+.O.+.OX OO.OOX OOO.+OXOXXX+OX.+",
"+OXXXXXO.XXOOOO.OXXXXXO.XXOOOO.+",
"+X@@@@@oO@@ooo@X@@@@@@oO@@ooooO+",
"+X@  ooX.ooooo . o oo  OooooooX+",
"+. o o X. ooo X.X Xoo X. o Xo O+",
"+.OOO..O+OXOOOO..OOOOO.+OOO....+",
"+O X.X   XX.X   XXOO XOOXO..X O+",
"+X@oO@@@@@oO@@@@ooXo@ooooX O@@X+",
"+O X.oo  ooOX  oooXXo o  o . oX+",
"+.XX.X  X  .OX o  OO XXX  X.X O+",
"+...+..O...+..........OO...+.O.+",
"+Oooo XX. ooo X. oo XXX. o XXXO+",
"+X@o@oo O@@@o@oOo@@ooooO@@ooooX+",
"+Oo  ooX.   oo . o  o X.oooo  O+",
"+O XX  X.X    X.X X  XX.    XX.+",
"+..............++......+.......+",
"+Oo .oo    O oooo OX@oo   O.o@X+",
"+X@ O@oooooOo@o@ooX @oooo X.@@X+",
"+O X. o   X.X     OOoo   XX.X X+",
"+OXX.X XXXX.OXXXXX.O  XXXXO.XXX+",
"+......................+.......+",
"++.OOOO.+.OOO...OO.OOOO+.OOOOO.+",
"++++++++++++++++++++++++++++++++"
};
