/* XPM */
static char *_ffc6e130ad446dcfd53a72a538902deeY7SeUKPUDqrqiTz[] = {
/* columns rows colors chars-per-pixel */
"32 32 4 1 ",
"  c #00BAF7",
". c #03CEFF",
"X c #47E4FF",
"o c #9BF5FF",
/* pixels */
"o.oo.ooooo  oooooooXXXXoXoX..o..",
"ooo.     ooooooXX     XXX.oo.o.o",
"oo.       oooX .       XXXX o.oo",
"o.         oX                o.o",
"o..       .oo                 oo",
"o...     .oX.o                 X",
"o........oo  o.                X",
"      ..oo    o               Xo",
"       .o    ..o XXX         XXo",
"      .oX. .....oo..XX      X.Xo",
"...  .XoX.X..o....ooooXXXXXXXXoX",
"...ooXX.X      XXXXXX oooo.ooo.X",
".. .XX.            .   X..o....X",
"    XX                  X.o..   ",
"     X                   XoX    ",
"    .X.                  Xo     ",
"    .XXX                  o     ",
"       .Xoooooo...       oX     ",
"        ...XooXoXoX     Xo.     ",
"       ....oXX   Xo..  X.o.     ",
"    XXXooooXX      ooooo..oo .  ",
"XXXXXooXXXX.XX      ........oXXo",
"oooooX       XXXX  .X..XXXXX.ooo",
"oooX            .X.X.XXX.    ..o",
"ooX              XX.          Xo",
"ooXX              X            X",
"XoXX             o              ",
"Xo.XX XX        XoX             ",
"XoooooooooXXXooooX              ",
"XoX      XoooX  XXX  XX        X",
"oX               .XXXXXX XXX  Xo",
"...            ..  oooooooooooo."
};
